{
	"patcher" : 	{
		"fileversion" : 1,
		"appversion" : 		{
			"major" : 8,
			"minor" : 3,
			"revision" : 3,
			"architecture" : "x64",
			"modernui" : 1
		}
,
		"classnamespace" : "box",
		"rect" : [ 129.0, 183.0, 1007.0, 591.0 ],
		"bglocked" : 0,
		"openinpresentation" : 0,
		"default_fontsize" : 12.0,
		"default_fontface" : 0,
		"default_fontname" : "Arial",
		"gridonopen" : 1,
		"gridsize" : [ 15.0, 15.0 ],
		"gridsnaponopen" : 1,
		"objectsnaponopen" : 1,
		"statusbarvisible" : 2,
		"toolbarvisible" : 1,
		"lefttoolbarpinned" : 0,
		"toptoolbarpinned" : 0,
		"righttoolbarpinned" : 0,
		"bottomtoolbarpinned" : 0,
		"toolbars_unpinned_last_save" : 0,
		"tallnewobj" : 0,
		"boxanimatetime" : 200,
		"enablehscroll" : 1,
		"enablevscroll" : 1,
		"devicewidth" : 0.0,
		"description" : "",
		"digest" : "",
		"tags" : "",
		"style" : "",
		"subpatcher_template" : "",
		"assistshowspatchername" : 0,
		"boxes" : [ 			{
				"box" : 				{
					"id" : "obj-42",
					"maxclass" : "newobj",
					"numinlets" : 2,
					"numoutlets" : 2,
					"outlettype" : [ "jit_matrix", "" ],
					"patching_rect" : [ 727.620125293731689, 337.748247146606445, 80.0, 22.0 ],
					"text" : "jit.op @op >p"
				}

			}
, 			{
				"box" : 				{
					"id" : "obj-36",
					"maxclass" : "message",
					"numinlets" : 2,
					"numoutlets" : 1,
					"outlettype" : [ "" ],
					"patching_rect" : [ 727.500008225440979, 139.828732162714005, 74.0, 22.0 ],
					"text" : "importmovie"
				}

			}
, 			{
				"box" : 				{
					"id" : "obj-40",
					"maxclass" : "newobj",
					"numinlets" : 2,
					"numoutlets" : 1,
					"outlettype" : [ "bang" ],
					"patching_rect" : [ 756.100007295608521, 185.600002765655518, 119.0, 22.0 ],
					"text" : "metro 100 @active 1"
				}

			}
, 			{
				"box" : 				{
					"id" : "obj-41",
					"maxclass" : "newobj",
					"numinlets" : 1,
					"numoutlets" : 2,
					"outlettype" : [ "jit_matrix", "" ],
					"patching_rect" : [ 727.500008225440979, 236.037940591573715, 137.0, 22.0 ],
					"text" : "jit.matrix 4 char 320 240"
				}

			}
, 			{
				"box" : 				{
					"bubble" : 1,
					"bubblepoint" : 0.2,
					"bubbleusescolors" : 1,
					"fontface" : 0,
					"fontname" : "Avenir Next",
					"id" : "obj-35",
					"linecount" : 5,
					"maxclass" : "comment",
					"numinlets" : 1,
					"numoutlets" : 0,
					"patching_rect" : [ 832.667428167000253, 280.304606884717941, 158.39999920129776, 92.0 ],
					"text" : "The operator \">p\" means pass values that are greater than... (See the help file for all the operators you can use.)"
				}

			}
, 			{
				"box" : 				{
					"bubble" : 1,
					"bubblepoint" : 0.8,
					"bubbleside" : 2,
					"bubbleusescolors" : 1,
					"fontface" : 0,
					"fontname" : "Avenir Next",
					"id" : "obj-32",
					"linecount" : 4,
					"maxclass" : "comment",
					"numinlets" : 1,
					"numoutlets" : 0,
					"patching_rect" : [ 521.1534543633461, 147.504605084657669, 167.400000274181366, 91.0 ],
					"text" : "Floating point numbers can be used with [jit.op] for things like multiplication. This makes your "
				}

			}
, 			{
				"box" : 				{
					"id" : "obj-31",
					"maxclass" : "newobj",
					"numinlets" : 2,
					"numoutlets" : 2,
					"outlettype" : [ "jit_matrix", "" ],
					"patching_rect" : [ 581.620123445987701, 321.104606419801712, 71.0, 22.0 ],
					"text" : "jit.op @op *"
				}

			}
, 			{
				"box" : 				{
					"id" : "obj-28",
					"maxclass" : "newobj",
					"numinlets" : 2,
					"numoutlets" : 2,
					"outlettype" : [ "jit_matrix", "" ],
					"patching_rect" : [ 480.353454530239105, 321.104606419801712, 71.0, 22.0 ],
					"text" : "jit.op @op *"
				}

			}
, 			{
				"box" : 				{
					"id" : "obj-27",
					"maxclass" : "newobj",
					"numinlets" : 2,
					"numoutlets" : 2,
					"outlettype" : [ "jit_matrix", "" ],
					"patching_rect" : [ 387.753453373908997, 321.104606419801712, 71.0, 22.0 ],
					"text" : "jit.op @op *"
				}

			}
, 			{
				"box" : 				{
					"id" : "obj-24",
					"maxclass" : "message",
					"numinlets" : 2,
					"numoutlets" : 1,
					"outlettype" : [ "" ],
					"patching_rect" : [ 365.120118051767349, 111.804602950811386, 74.0, 22.0 ],
					"text" : "importmovie"
				}

			}
, 			{
				"box" : 				{
					"bubble" : 1,
					"bubbleside" : 2,
					"bubbleusescolors" : 1,
					"fontface" : 0,
					"fontname" : "Avenir Next",
					"id" : "obj-20",
					"linecount" : 4,
					"maxclass" : "comment",
					"numinlets" : 1,
					"numoutlets" : 0,
					"patching_rect" : [ 155.625075956580304, 185.600002765655518, 168.0, 91.0 ],
					"text" : "[jit.op] can perform a variety of mathematical or logical operations on a matrix. (The syntax is a little goofy.)"
				}

			}
, 			{
				"box" : 				{
					"id" : "obj-18",
					"maxclass" : "newobj",
					"numinlets" : 2,
					"numoutlets" : 2,
					"outlettype" : [ "jit_matrix", "" ],
					"patching_rect" : [ 181.800000071525574, 297.904605180025101, 127.0, 22.0 ],
					"text" : "jit.op @op > @val 127"
				}

			}
, 			{
				"box" : 				{
					"fontface" : 1,
					"fontname" : "Arial",
					"id" : "obj-11",
					"linecount" : 2,
					"maxclass" : "comment",
					"numinlets" : 1,
					"numoutlets" : 0,
					"patching_rect" : [ 11.250036260902391, 53.666675166893, 600.686166122105078, 33.0 ],
					"text" : "Performing mathematical and logical operations on individual cells using [jit.op]. Now we're getting into the *unique* affordances of manipulating images that are digitally represented on a computer.",
					"textcolor" : [ 0.286274509803922, 0.305882352941176, 0.298039215686275, 1.0 ]
				}

			}
, 			{
				"box" : 				{
					"fontface" : 0,
					"fontname" : "Impact",
					"fontsize" : 30.0,
					"id" : "obj-90",
					"maxclass" : "comment",
					"numinlets" : 1,
					"numoutlets" : 0,
					"patching_rect" : [ 11.250036260902391, 8.666675166893, 497.749966838539137, 43.0 ],
					"text" : "Numerical Transformation",
					"textcolor" : [ 0.286274509803922, 0.305882352941176, 0.298039215686275, 1.0 ]
				}

			}
, 			{
				"box" : 				{
					"id" : "obj-17",
					"maxclass" : "live.line",
					"numinlets" : 1,
					"numoutlets" : 0,
					"patching_rect" : [ 11.250036260902391, 86.800000011920929, 966.817391107395679, 5.0 ]
				}

			}
, 			{
				"box" : 				{
					"id" : "obj-5",
					"maxclass" : "jit.pwindow",
					"numinlets" : 1,
					"numoutlets" : 2,
					"outlettype" : [ "jit_matrix", "" ],
					"patching_rect" : [ 727.620125293731689, 396.533338129520416, 235.447302074566323, 149.799996852874756 ],
					"sync" : 1
				}

			}
, 			{
				"box" : 				{
					"id" : "obj-2",
					"maxclass" : "live.dial",
					"numinlets" : 1,
					"numoutlets" : 2,
					"outlettype" : [ "", "float" ],
					"parameter_enable" : 1,
					"patching_rect" : [ 788.620125293731689, 271.904605180025101, 41.0, 48.0 ],
					"saved_attribute_attributes" : 					{
						"valueof" : 						{
							"parameter_initial" : [ 128.0 ],
							"parameter_initial_enable" : 1,
							"parameter_longname" : "live.dial[4]",
							"parameter_mmax" : 255.0,
							"parameter_shortname" : "Value",
							"parameter_type" : 1,
							"parameter_unitstyle" : 0
						}

					}
,
					"varname" : "live.dial[4]"
				}

			}
, 			{
				"box" : 				{
					"id" : "obj-1",
					"maxclass" : "live.line",
					"numinlets" : 1,
					"numoutlets" : 0,
					"patching_rect" : [ 703.386786311864853, 106.409212291240692, 5.800000011920929, 439.790789186954498 ]
				}

			}
, 			{
				"box" : 				{
					"id" : "obj-30",
					"maxclass" : "live.line",
					"numinlets" : 1,
					"numoutlets" : 0,
					"patching_rect" : [ 342.586789637804031, 106.409212291240692, 5.0, 439.79078596830368 ]
				}

			}
, 			{
				"box" : 				{
					"cols" : 4,
					"colwidth" : 32,
					"fontface" : 0,
					"fontname" : "Arial",
					"fontsize" : 12.0,
					"hscroll" : 0,
					"id" : "obj-29",
					"maxclass" : "jit.cellblock",
					"numinlets" : 2,
					"numoutlets" : 4,
					"outlettype" : [ "list", "", "", "" ],
					"patching_rect" : [ 181.800000071525574, 471.533338129520416, 123.050152163500115, 73.266663551330566 ],
					"rows" : 4,
					"vscroll" : 0
				}

			}
, 			{
				"box" : 				{
					"cols" : 4,
					"colwidth" : 32,
					"fontface" : 0,
					"fontname" : "Arial",
					"fontsize" : 12.0,
					"hscroll" : 0,
					"id" : "obj-144",
					"maxclass" : "jit.cellblock",
					"numinlets" : 2,
					"numoutlets" : 4,
					"outlettype" : [ "list", "", "", "" ],
					"patching_rect" : [ 25.800000071525574, 471.533338129520416, 123.050152163500115, 73.266663551330566 ],
					"rows" : 4,
					"vscroll" : 0
				}

			}
, 			{
				"box" : 				{
					"id" : "obj-25",
					"maxclass" : "button",
					"numinlets" : 1,
					"numoutlets" : 1,
					"outlettype" : [ "bang" ],
					"parameter_enable" : 0,
					"patching_rect" : [ 25.800000071525574, 166.933337986469269, 24.0, 24.0 ]
				}

			}
, 			{
				"box" : 				{
					"id" : "obj-23",
					"maxclass" : "jit.pwindow",
					"numinlets" : 1,
					"numoutlets" : 2,
					"outlettype" : [ "jit_matrix", "" ],
					"patching_rect" : [ 181.800000071525574, 355.633329063653946, 123.050152163500115, 94.0 ],
					"sync" : 1
				}

			}
, 			{
				"box" : 				{
					"id" : "obj-21",
					"maxclass" : "jit.pwindow",
					"numinlets" : 1,
					"numoutlets" : 2,
					"outlettype" : [ "jit_matrix", "" ],
					"patching_rect" : [ 25.800000071525574, 355.633329063653946, 123.050152163500115, 94.0 ],
					"sync" : 1
				}

			}
, 			{
				"box" : 				{
					"id" : "obj-8",
					"maxclass" : "newobj",
					"numinlets" : 1,
					"numoutlets" : 2,
					"outlettype" : [ "jit_matrix", "" ],
					"patching_rect" : [ 25.800000071525574, 297.904605180025101, 106.0, 22.0 ],
					"text" : "jit.noise 1 char 4 4"
				}

			}
, 			{
				"box" : 				{
					"id" : "obj-39",
					"maxclass" : "newobj",
					"numinlets" : 2,
					"numoutlets" : 1,
					"outlettype" : [ "bang" ],
					"patching_rect" : [ 393.720117121934891, 139.828732162714005, 119.0, 22.0 ],
					"text" : "metro 100 @active 1"
				}

			}
, 			{
				"box" : 				{
					"id" : "obj-38",
					"maxclass" : "jit.pwindow",
					"numinlets" : 1,
					"numoutlets" : 2,
					"outlettype" : [ "jit_matrix", "" ],
					"patching_rect" : [ 365.120118051767349, 396.533338129520416, 235.447302074566323, 149.799996852874756 ],
					"sync" : 1
				}

			}
, 			{
				"box" : 				{
					"id" : "obj-34",
					"maxclass" : "live.dial",
					"numinlets" : 1,
					"numoutlets" : 2,
					"outlettype" : [ "", "float" ],
					"parameter_enable" : 1,
					"patching_rect" : [ 633.620123445987701, 256.637939780950546, 41.0, 48.0 ],
					"saved_attribute_attributes" : 					{
						"valueof" : 						{
							"parameter_initial" : [ 1.0 ],
							"parameter_initial_enable" : 1,
							"parameter_longname" : "live.dial[2]",
							"parameter_mmax" : 1.0,
							"parameter_shortname" : "Blue",
							"parameter_type" : 0,
							"parameter_unitstyle" : 1
						}

					}
,
					"varname" : "live.dial[2]"
				}

			}
, 			{
				"box" : 				{
					"id" : "obj-13",
					"maxclass" : "live.dial",
					"numinlets" : 1,
					"numoutlets" : 2,
					"outlettype" : [ "", "float" ],
					"parameter_enable" : 1,
					"patching_rect" : [ 532.353454530239105, 256.637939780950546, 41.0, 48.0 ],
					"saved_attribute_attributes" : 					{
						"valueof" : 						{
							"parameter_initial" : [ 1.0 ],
							"parameter_initial_enable" : 1,
							"parameter_longname" : "live.dial[1]",
							"parameter_mmax" : 1.0,
							"parameter_shortname" : "Green",
							"parameter_type" : 0,
							"parameter_unitstyle" : 1
						}

					}
,
					"varname" : "live.dial[1]"
				}

			}
, 			{
				"box" : 				{
					"id" : "obj-12",
					"maxclass" : "live.dial",
					"numinlets" : 1,
					"numoutlets" : 2,
					"outlettype" : [ "", "float" ],
					"parameter_enable" : 1,
					"patching_rect" : [ 439.753453373908997, 256.637939780950546, 41.0, 48.0 ],
					"saved_attribute_attributes" : 					{
						"valueof" : 						{
							"parameter_initial" : [ 1.0 ],
							"parameter_initial_enable" : 1,
							"parameter_longname" : "live.dial",
							"parameter_mmax" : 1.0,
							"parameter_shortname" : "Red",
							"parameter_type" : 0,
							"parameter_unitstyle" : 1
						}

					}
,
					"varname" : "live.dial"
				}

			}
, 			{
				"box" : 				{
					"id" : "obj-9",
					"maxclass" : "newobj",
					"numinlets" : 4,
					"numoutlets" : 2,
					"outlettype" : [ "jit_matrix", "" ],
					"patching_rect" : [ 365.120118051767349, 360.548247635364532, 235.500005394220352, 22.0 ],
					"text" : "jit.pack"
				}

			}
, 			{
				"box" : 				{
					"id" : "obj-37",
					"maxclass" : "newobj",
					"numinlets" : 1,
					"numoutlets" : 5,
					"outlettype" : [ "jit_matrix", "jit_matrix", "jit_matrix", "jit_matrix", "" ],
					"patching_rect" : [ 365.120118051767349, 203.409212648868561, 109.533341288566589, 22.0 ],
					"text" : "jit.unpack"
				}

			}
, 			{
				"box" : 				{
					"id" : "obj-14",
					"maxclass" : "newobj",
					"numinlets" : 1,
					"numoutlets" : 2,
					"outlettype" : [ "jit_matrix", "" ],
					"patching_rect" : [ 365.120118051767349, 175.437939912080765, 137.0, 22.0 ],
					"text" : "jit.matrix 4 char 320 240"
				}

			}
 ],
		"lines" : [ 			{
				"patchline" : 				{
					"destination" : [ "obj-27", 1 ],
					"source" : [ "obj-12", 0 ]
				}

			}
, 			{
				"patchline" : 				{
					"destination" : [ "obj-28", 1 ],
					"source" : [ "obj-13", 0 ]
				}

			}
, 			{
				"patchline" : 				{
					"destination" : [ "obj-37", 0 ],
					"source" : [ "obj-14", 0 ]
				}

			}
, 			{
				"patchline" : 				{
					"destination" : [ "obj-23", 0 ],
					"source" : [ "obj-18", 0 ]
				}

			}
, 			{
				"patchline" : 				{
					"destination" : [ "obj-42", 1 ],
					"source" : [ "obj-2", 0 ]
				}

			}
, 			{
				"patchline" : 				{
					"destination" : [ "obj-144", 0 ],
					"source" : [ "obj-21", 0 ]
				}

			}
, 			{
				"patchline" : 				{
					"destination" : [ "obj-29", 0 ],
					"source" : [ "obj-23", 0 ]
				}

			}
, 			{
				"patchline" : 				{
					"destination" : [ "obj-14", 0 ],
					"source" : [ "obj-24", 0 ]
				}

			}
, 			{
				"patchline" : 				{
					"destination" : [ "obj-8", 0 ],
					"source" : [ "obj-25", 0 ]
				}

			}
, 			{
				"patchline" : 				{
					"destination" : [ "obj-9", 1 ],
					"source" : [ "obj-27", 0 ]
				}

			}
, 			{
				"patchline" : 				{
					"destination" : [ "obj-9", 2 ],
					"source" : [ "obj-28", 0 ]
				}

			}
, 			{
				"patchline" : 				{
					"destination" : [ "obj-9", 3 ],
					"source" : [ "obj-31", 0 ]
				}

			}
, 			{
				"patchline" : 				{
					"destination" : [ "obj-31", 1 ],
					"source" : [ "obj-34", 0 ]
				}

			}
, 			{
				"patchline" : 				{
					"destination" : [ "obj-41", 0 ],
					"source" : [ "obj-36", 0 ]
				}

			}
, 			{
				"patchline" : 				{
					"destination" : [ "obj-27", 0 ],
					"source" : [ "obj-37", 1 ]
				}

			}
, 			{
				"patchline" : 				{
					"destination" : [ "obj-28", 0 ],
					"midpoints" : [ 419.886788696050644, 244.566667631268501, 489.853454530239105, 244.566667631268501 ],
					"source" : [ "obj-37", 2 ]
				}

			}
, 			{
				"patchline" : 				{
					"destination" : [ "obj-31", 0 ],
					"midpoints" : [ 442.520124018192291, 237.766667529940605, 591.120123445987701, 237.766667529940605 ],
					"source" : [ "obj-37", 3 ]
				}

			}
, 			{
				"patchline" : 				{
					"destination" : [ "obj-9", 0 ],
					"source" : [ "obj-37", 0 ]
				}

			}
, 			{
				"patchline" : 				{
					"destination" : [ "obj-14", 0 ],
					"midpoints" : [ 403.220117121934891, 168.862066119909286, 374.620118051767349, 168.862066119909286 ],
					"source" : [ "obj-39", 0 ]
				}

			}
, 			{
				"patchline" : 				{
					"destination" : [ "obj-41", 0 ],
					"midpoints" : [ 765.600007295608521, 229.462066799402237, 737.000008225440979, 229.462066799402237 ],
					"source" : [ "obj-40", 0 ]
				}

			}
, 			{
				"patchline" : 				{
					"destination" : [ "obj-42", 0 ],
					"source" : [ "obj-41", 0 ]
				}

			}
, 			{
				"patchline" : 				{
					"destination" : [ "obj-5", 0 ],
					"source" : [ "obj-42", 0 ]
				}

			}
, 			{
				"patchline" : 				{
					"destination" : [ "obj-18", 0 ],
					"midpoints" : [ 35.300000071525574, 329.904605180025101, 158.900000751018524, 329.904605180025101, 158.900000751018524, 286.904605180025101, 191.300000071525574, 286.904605180025101 ],
					"order" : 0,
					"source" : [ "obj-8", 0 ]
				}

			}
, 			{
				"patchline" : 				{
					"destination" : [ "obj-21", 0 ],
					"order" : 1,
					"source" : [ "obj-8", 0 ]
				}

			}
, 			{
				"patchline" : 				{
					"destination" : [ "obj-38", 0 ],
					"source" : [ "obj-9", 0 ]
				}

			}
 ],
		"parameters" : 		{
			"obj-12" : [ "live.dial", "Red", 0 ],
			"obj-13" : [ "live.dial[1]", "Green", 0 ],
			"obj-2" : [ "live.dial[4]", "Value", 0 ],
			"obj-34" : [ "live.dial[2]", "Blue", 0 ],
			"parameterbanks" : 			{

			}
,
			"inherited_shortname" : 1
		}
,
		"dependency_cache" : [  ],
		"autosave" : 0,
		"styles" : [ 			{
				"name" : "AudioStatus_Menu",
				"default" : 				{
					"bgfillcolor" : 					{
						"angle" : 270.0,
						"autogradient" : 0,
						"color" : [ 0.294118, 0.313726, 0.337255, 1 ],
						"color1" : [ 0.454902, 0.462745, 0.482353, 0.0 ],
						"color2" : [ 0.290196, 0.309804, 0.301961, 1.0 ],
						"proportion" : 0.39,
						"type" : "color"
					}

				}
,
				"parentstyle" : "",
				"multi" : 0
			}
, 			{
				"name" : "Luca",
				"default" : 				{
					"accentcolor" : [ 0.32549, 0.345098, 0.372549, 1.0 ],
					"bgcolor" : [ 0.904179, 0.895477, 0.842975, 0.56 ],
					"bgfillcolor" : 					{
						"angle" : 270.0,
						"autogradient" : 0,
						"color" : [ 0.290196, 0.309804, 0.301961, 1.0 ],
						"color1" : [ 0.862745, 0.870588, 0.878431, 1.0 ],
						"color2" : [ 0.65098, 0.666667, 0.662745, 1.0 ],
						"proportion" : 0.39,
						"type" : "gradient"
					}
,
					"color" : [ 0.475135, 0.293895, 0.251069, 1.0 ],
					"elementcolor" : [ 0.786675, 0.801885, 0.845022, 1.0 ],
					"fontname" : [ "Open Sans Semibold" ],
					"selectioncolor" : [ 0.720698, 0.16723, 0.080014, 1.0 ],
					"textcolor_inverse" : [ 0.239216, 0.254902, 0.278431, 1.0 ]
				}
,
				"parentstyle" : "",
				"multi" : 0
			}
, 			{
				"name" : "buttonBlue",
				"default" : 				{
					"bgcolor" : [ 0.317647, 0.654902, 0.976471, 1.0 ]
				}
,
				"parentstyle" : "",
				"multi" : 0
			}
, 			{
				"name" : "buttonPurple",
				"default" : 				{
					"bgcolor" : [ 0.372549, 0.196078, 0.486275, 1.0 ]
				}
,
				"parentstyle" : "",
				"multi" : 0
			}
, 			{
				"name" : "dark-night-patch",
				"default" : 				{
					"accentcolor" : [ 0.952941, 0.564706, 0.098039, 1.0 ],
					"bgfillcolor" : 					{
						"angle" : 270.0,
						"color" : [ 0.290196, 0.309804, 0.301961, 1.0 ],
						"color1" : [ 0.376471, 0.384314, 0.4, 1.0 ],
						"color2" : [ 0.290196, 0.309804, 0.301961, 1.0 ],
						"proportion" : 0.39,
						"type" : "gradient"
					}
,
					"patchlinecolor" : [ 0.439216, 0.74902, 0.254902, 0.898039 ],
					"textcolor" : [ 0.862745, 0.870588, 0.878431, 1.0 ]
				}
,
				"parentstyle" : "",
				"multi" : 0
			}
, 			{
				"name" : "helpfile_label-1",
				"default" : 				{
					"fontname" : [ "Arial" ],
					"fontsize" : [ 13.0 ],
					"textcolor" : [ 0.501961, 0.501961, 0.501961, 1.0 ]
				}
,
				"parentstyle" : "",
				"multi" : 0
			}
, 			{
				"name" : "m4va",
				"default" : 				{
					"bgcolor" : [ 0.788235, 0.8, 0.843137, 0.0 ],
					"fontname" : [ "Arial" ],
					"fontsize" : [ 12.0 ],
					"textcolor_inverse" : [ 0.0, 0.0, 0.0, 1.0 ]
				}
,
				"parentstyle" : "",
				"multi" : 0
			}
, 			{
				"name" : "m4vatextbutton",
				"default" : 				{
					"accentcolor" : [ 1.0, 1.0, 1.0, 1.0 ],
					"bgcolor" : [ 0.264542, 0.246412, 0.247132, 1.0 ],
					"color" : [ 1.0, 1.0, 1.0, 1.0 ],
					"elementcolor" : [ 0.264542, 0.246412, 0.247132, 1.0 ],
					"fontsize" : [ 14.0 ],
					"selectioncolor" : [ 0.960784, 0.827451, 0.156863, 1.0 ]
				}
,
				"parentstyle" : "",
				"multi" : 0
			}
, 			{
				"name" : "multisliderBlue&Yellow",
				"default" : 				{
					"bgcolor" : [ 0.317647, 0.654902, 0.976471, 0.79 ],
					"color" : [ 0.960784, 0.867826, 0.084811, 1.0 ]
				}
,
				"parentstyle" : "",
				"multi" : 0
			}
, 			{
				"name" : "newobjBlue-1",
				"default" : 				{
					"accentcolor" : [ 0.317647, 0.654902, 0.976471, 1.0 ]
				}
,
				"parentstyle" : "",
				"multi" : 0
			}
, 			{
				"name" : "newobjBlue-2",
				"default" : 				{
					"accentcolor" : [ 0.317647, 0.654902, 0.976471, 1.0 ]
				}
,
				"parentstyle" : "",
				"multi" : 0
			}
, 			{
				"name" : "newobjBlue-3",
				"default" : 				{
					"accentcolor" : [ 0.317647, 0.654902, 0.976471, 1.0 ]
				}
,
				"parentstyle" : "",
				"multi" : 0
			}
, 			{
				"name" : "newobjBlue-4",
				"default" : 				{
					"accentcolor" : [ 0.317647, 0.654902, 0.976471, 1.0 ]
				}
,
				"parentstyle" : "",
				"multi" : 0
			}
, 			{
				"name" : "newobjBlue-5",
				"default" : 				{
					"accentcolor" : [ 0.317647, 0.654902, 0.976471, 1.0 ]
				}
,
				"parentstyle" : "",
				"multi" : 0
			}
, 			{
				"name" : "newobjBrown-1",
				"default" : 				{
					"accentcolor" : [ 0.654902, 0.572549, 0.376471, 1.0 ]
				}
,
				"parentstyle" : "",
				"multi" : 0
			}
, 			{
				"name" : "newobjBrown-2",
				"default" : 				{
					"accentcolor" : [ 0.654902, 0.572549, 0.376471, 1.0 ]
				}
,
				"parentstyle" : "",
				"multi" : 0
			}
, 			{
				"name" : "newobjBrown-3",
				"default" : 				{
					"accentcolor" : [ 0.654902, 0.572549, 0.376471, 1.0 ]
				}
,
				"parentstyle" : "",
				"multi" : 0
			}
, 			{
				"name" : "newobjBrown-4",
				"default" : 				{
					"accentcolor" : [ 0.654902, 0.572549, 0.376471, 1.0 ]
				}
,
				"parentstyle" : "",
				"multi" : 0
			}
, 			{
				"name" : "newobjCyan-1",
				"default" : 				{
					"accentcolor" : [ 0.029546, 0.773327, 0.821113, 1.0 ]
				}
,
				"parentstyle" : "",
				"multi" : 0
			}
, 			{
				"name" : "newobjGreen-1",
				"default" : 				{
					"accentcolor" : [ 0.0, 0.533333, 0.168627, 1.0 ]
				}
,
				"parentstyle" : "",
				"multi" : 0
			}
, 			{
				"name" : "newobjGreen-2",
				"default" : 				{
					"accentcolor" : [ 0.0, 0.533333, 0.168627, 1.0 ]
				}
,
				"parentstyle" : "",
				"multi" : 0
			}
, 			{
				"name" : "newobjGreen-3",
				"default" : 				{
					"accentcolor" : [ 0.0, 0.533333, 0.168627, 1.0 ]
				}
,
				"parentstyle" : "",
				"multi" : 0
			}
, 			{
				"name" : "newobjGreen-4",
				"default" : 				{
					"accentcolor" : [ 0.0, 0.533333, 0.168627, 1.0 ]
				}
,
				"parentstyle" : "",
				"multi" : 0
			}
, 			{
				"name" : "newobjGreen-5",
				"default" : 				{
					"accentcolor" : [ 0.0, 0.533333, 0.168627, 1.0 ]
				}
,
				"parentstyle" : "",
				"multi" : 0
			}
, 			{
				"name" : "newobjMagenta-1",
				"default" : 				{
					"accentcolor" : [ 0.840663, 0.060168, 0.769195, 1.0 ]
				}
,
				"parentstyle" : "",
				"multi" : 0
			}
, 			{
				"name" : "newobjRed-1",
				"default" : 				{
					"accentcolor" : [ 0.784314, 0.145098, 0.023529, 1.0 ]
				}
,
				"parentstyle" : "",
				"multi" : 0
			}
, 			{
				"name" : "newobjYellow-1",
				"default" : 				{
					"accentcolor" : [ 0.82517, 0.78181, 0.059545, 1.0 ],
					"fontsize" : [ 12.059008 ]
				}
,
				"parentstyle" : "",
				"multi" : 0
			}
, 			{
				"name" : "newobjYellow-2",
				"default" : 				{
					"accentcolor" : [ 0.82517, 0.78181, 0.059545, 1.0 ],
					"fontsize" : [ 12.059008 ]
				}
,
				"parentstyle" : "",
				"multi" : 0
			}
, 			{
				"name" : "newobjYellow-3",
				"default" : 				{
					"accentcolor" : [ 0.82517, 0.78181, 0.059545, 1.0 ],
					"fontsize" : [ 12.059008 ]
				}
,
				"parentstyle" : "",
				"multi" : 0
			}
, 			{
				"name" : "newobjYellow-4",
				"default" : 				{
					"accentcolor" : [ 0.82517, 0.78181, 0.059545, 1.0 ],
					"fontsize" : [ 12.059008 ]
				}
,
				"parentstyle" : "",
				"multi" : 0
			}
, 			{
				"name" : "newobjYellow-5",
				"default" : 				{
					"accentcolor" : [ 0.82517, 0.78181, 0.059545, 1.0 ],
					"fontsize" : [ 12.059008 ]
				}
,
				"parentstyle" : "",
				"multi" : 0
			}
, 			{
				"name" : "newobjYellow-6",
				"default" : 				{
					"accentcolor" : [ 0.82517, 0.78181, 0.059545, 1.0 ],
					"fontsize" : [ 12.059008 ]
				}
,
				"parentstyle" : "",
				"multi" : 0
			}
, 			{
				"name" : "numberB-1",
				"default" : 				{
					"accentcolor" : [ 0.011765, 0.396078, 0.752941, 1.0 ]
				}
,
				"parentstyle" : "",
				"multi" : 0
			}
, 			{
				"name" : "numberG-1",
				"default" : 				{
					"accentcolor" : [ 0.0, 0.533333, 0.168627, 1.0 ]
				}
,
				"parentstyle" : "",
				"multi" : 0
			}
, 			{
				"name" : "numberGold-1",
				"default" : 				{
					"accentcolor" : [ 0.764706, 0.592157, 0.101961, 1.0 ]
				}
,
				"parentstyle" : "",
				"multi" : 0
			}
, 			{
				"name" : "numberGold-2",
				"default" : 				{
					"accentcolor" : [ 0.764706, 0.592157, 0.101961, 1.0 ]
				}
,
				"parentstyle" : "",
				"multi" : 0
			}
, 			{
				"name" : "numberGold-3",
				"default" : 				{
					"accentcolor" : [ 0.764706, 0.592157, 0.101961, 1.0 ]
				}
,
				"parentstyle" : "",
				"multi" : 0
			}
, 			{
				"name" : "numberGold-4",
				"default" : 				{
					"accentcolor" : [ 0.764706, 0.592157, 0.101961, 1.0 ]
				}
,
				"parentstyle" : "",
				"multi" : 0
			}
, 			{
				"name" : "numberGold-5",
				"default" : 				{
					"accentcolor" : [ 0.764706, 0.592157, 0.101961, 1.0 ]
				}
,
				"parentstyle" : "",
				"multi" : 0
			}
, 			{
				"name" : "panelViolet",
				"default" : 				{
					"bgfillcolor" : 					{
						"angle" : 270.0,
						"autogradient" : 0,
						"color" : [ 0.372549, 0.196078, 0.486275, 0.2 ],
						"color1" : [ 0.454902, 0.462745, 0.482353, 1.0 ],
						"color2" : [ 0.290196, 0.309804, 0.301961, 1.0 ],
						"proportion" : 0.39,
						"type" : "color"
					}

				}
,
				"parentstyle" : "",
				"multi" : 0
			}
, 			{
				"name" : "rsliderGold",
				"default" : 				{
					"bgcolor" : [ 0.764706, 0.592157, 0.101961, 1.0 ],
					"color" : [ 0.646639, 0.821777, 0.854593, 1.0 ]
				}
,
				"parentstyle" : "",
				"multi" : 0
			}
, 			{
				"name" : "simple",
				"parentstyle" : "",
				"multi" : 0
			}
, 			{
				"name" : "texteditGold",
				"default" : 				{
					"bgcolor" : [ 0.764706, 0.592157, 0.101961, 0.68 ],
					"textcolor_inverse" : [ 0.0, 0.0, 0.0, 1.0 ]
				}
,
				"parentstyle" : "",
				"multi" : 0
			}
 ]
	}

}
