{
	"patcher" : 	{
		"fileversion" : 1,
		"appversion" : 		{
			"major" : 8,
			"minor" : 3,
			"revision" : 1,
			"architecture" : "x64",
			"modernui" : 1
		}
,
		"classnamespace" : "box",
		"rect" : [ 188.0, 226.0, 834.0, 556.0 ],
		"bglocked" : 0,
		"openinpresentation" : 0,
		"default_fontsize" : 12.0,
		"default_fontface" : 0,
		"default_fontname" : "Arial",
		"gridonopen" : 1,
		"gridsize" : [ 15.0, 15.0 ],
		"gridsnaponopen" : 1,
		"objectsnaponopen" : 1,
		"statusbarvisible" : 2,
		"toolbarvisible" : 1,
		"lefttoolbarpinned" : 0,
		"toptoolbarpinned" : 0,
		"righttoolbarpinned" : 0,
		"bottomtoolbarpinned" : 0,
		"toolbars_unpinned_last_save" : 0,
		"tallnewobj" : 0,
		"boxanimatetime" : 200,
		"enablehscroll" : 1,
		"enablevscroll" : 1,
		"devicewidth" : 0.0,
		"description" : "",
		"digest" : "",
		"tags" : "",
		"style" : "",
		"subpatcher_template" : "",
		"assistshowspatchername" : 0,
		"boxes" : [ 			{
				"box" : 				{
					"fontface" : 1,
					"fontname" : "Arial",
					"id" : "obj-4",
					"maxclass" : "comment",
					"numinlets" : 1,
					"numoutlets" : 0,
					"patching_rect" : [ 295.600003659725189, 84.83333545923233, 55.999999493360519, 20.0 ],
					"text" : "s. thorn",
					"textcolor" : [ 0.286274509803922, 0.305882352941176, 0.298039215686275, 1.0 ]
				}

			}
, 			{
				"box" : 				{
					"autofit" : 1,
					"data" : [ 4512, "png", "IBkSG0fBZn....PCIgDQRA..Bj...DPKHX....ff2NeQ....DLmPIQEBHf.B7g.YHB..QbURDEDU3wY6cGCiajceG.9G0IsTNt3z5TjXjhXrN.Ic9.V2aEf8JCfSgbgqbQftzkzsWUPR2ZXfDWDf.cHEtdELfQpbvJ.KWFf8.r6RQVECCDD3Foy.wNmz46XJl4E91QOtm7Ixk6L62G.wtb3Px2iyeR9iu4MjI..vlxN674956rym6qusaG..bEys141+vasys+ga61A..Wo7l2Ym42dwNyu8hj27Na6VC..qG2308F3ly+vuYR9nj7Q8+O..jbqcl+yKijvs1Y9Oea2d..X830ZjDlOe9WZ1rYewx4mMa1Wb974eoW6VE..acuVgDVrX1eSRtY0htY+x..Xja1qyUdm429CRxaNXw+xW77OzDXD.Xj6y7HIz+8hvmuwE848cl..v32m4PBKxh+xb9c0PwM6uL..Fw9Lt6Fdy6ry7m+rKZMdwymuaxu7C9rc6C.v11moQRn56FgUw2YB..ibelFIgasys+OlMK+AIK9vjja9F23NII+lO9S5G4fY2dwh7e8Qu3C+iVWMT..tb0ZNE7o5FyV7WTe923Mt4OJI4i+3W7m2sjEY1q0wMA..SEK5OA.vDwq8ucC..LMIj...MIj...MIj...MIj...MIj...MIj...MIj...MIj...MIj...MIj...MIj...MIj...MIj...MIj...MIj...MIj...MIj...MIj...MIj...MIj...MIj...MIj...MIj...MIj...MIj...MIj...MIj...MIj...MIj...MIj...MIj...MIj...MIj...MIj...MIj...MIj...MIj...MIj...MIj...MIj...MIj...MIj...MIj...MIj...MIj...MIj...MIj...MIj...MIj...MIj...MIj...MIj...MMlBIbTRVze5Aa41x5zAI4zz0ulJ1KK6Smjjc2tMm0lo31pjoY+RM33xwoqOcZR1eK2VXCn7l2aJGljmlthm8RxYoKzvTvI8mlROo+zz8j9c6++oRnto31pjoY+RM33wQo60z2KcamNa61bXSXSGRXXnfRngoh6moyS52Kc8kC5OusUiCSo9kZvwkyR21njtOH3hzsMjq.FK6tg8Rx6Wc9mkoyvGN0Tdx8i5+qsUbYSM33xdoaaTxxWm+fUrtbIarDRHwSxA35hmrsa.zYrDR3I47C+zdQQzUUksKkIeztw1JtboFbb4IY4GBb+pkwU.ikPBOLc6Gt85Ocu9kwUOOIcCY3go6I91VwkM0fiKOLcai1KcuN+6GgDlb1zSbwjtY85T7PfLoa+uMklHR0G9YGukaKqaSssUESs9kZvwk5CARSZwInKiPB..bIZrr6F..3RlPB..zjPB..zjPB..zjPB..zjPB..zjPB..zjPB..zjPB..zjPB..zjPB..zjPB..zjPB..zjPB..zjPB..zjPB..zjPB..zjPB..zjPB..zjPB..zjPB..zjPB..zjPB..zjPB..zzM21Mfq39V8mlZ9d8mlZd71tArA7hjry1tQrA78hZvwheRR9q21MBF2VzeZJ4sRxOKK6aSoS+r992Txiy1+w0M01pscaPM3qlGms+iqahSOKIe202CSLlXjDVs6jj+vj7SyzJE82MIekz0+lR9Z8+8Ocq1JV+9cRxuda2HVyTCNd7VI4eHSu.c7JRHgOcePlVCg3Grsa.aXOda2.3SkZPXjvDWD.flDR..flDR..flDR..flDR..flDR..flDR..flDR..flDR..flDR..flDR..flDR..flDR..flDR..flDR..flDR..flDR..flDR..flDR..flDR..flVUHg8SxYIYQ04O7RoEA.vUBqJjvCRxipN+yRxQa9lC..WUbQijv6Vc9mbIzV..3JjKZNIra0+eP5FMA..tlXUgDdX51kCII2u++e3kRKB.fqDVUHg2o5+KyOg2YEqK..SP2bEK+YI4suLaH..b0xpFIgEq3zoIYuKmlF..aSqZjDJG9ik4gv85+a4Pg7arIaT..r8spPBGjjubVdnO9vj7z9kc1kP6B.fsrW0uVlKGNj99R..3ZhUMRBOLIGmj2Kc6hgCS2tf3fHn..v0BWzg.4SR2g+3woKnv61ur2cEWG..lPV0HIre5F0fhCR2Q1vrXjD..tV3h9Ad585++2Ic69AeiKB.bMxpBIrWVtaEJeaKduUrt..LAspc2vSR2tb3go66Eg2+RqEA.vUBqJjv6lkSVwSR2nHXBKB.bMxp1cCGktQS3Io6KPoYoajE..3Zhgijv98m1Kc+DQWybR..3ZjggDtW59hSJo6Hbn12dy2b..3phggDd29SKR2tX..fqoV0bRP.A.fq4pGIgEuBquvC..WSTGR3sS2DVbU70wL.v0H0gDdTiK+fK3x..XB6h9Ad5jjra+4eR5FoAil..v0DWzOvSOJceQJ8kS2WKyCOjHA.XB6hFIg2Nce0Lmz8C7zSuTZQ..bkvpFIgjyOIFunIzH..SPqZjDduzs6EduzMZBGlteQHA.3Zh5QR3zzEFXuzs6EdR5BJbb+++NW5sN..1ZpCI7jz8q+3YoKvv6mk+BP9Mxx4m...WCTGR3ajt.Auc5BHbXVFX3v3mJZ.fqUZMwEeT510Begj7UyxQX3zKw1E..aYsl3h6ltexnOn+uIcAELwEA.tFoNjvQoKXPY2J7nz8yF8CiuoEA.t1oNjP4vb7amt.Blnh..WiUGRvOCz..7+6h9FWD.fqwDR..flDR..flDR..flDR..flDR..flDR..flDR..flDR..flDR..flDR..flDR..flDR..flDR..flDR..flDR..flDR..flDR..flDR..flDR..flDR..flDR..flDR..flDR..flDR..flDR..flDR..flDR..flDR..flDR..flDR..flDR..flDR..flDR..flDR..flDR..flDR..flDR..flDR..flDR..flDR..flDR..flDR..flDR..flDR..flDR..flDR..flDR..flDR..flDR..flt4Z91awZ91iMmez1tAv0dpAGO9ZY5856+cI4uca2HtpyHIbw9wI4ta6FwZ1cSW+ZJZ11tAvqj6F0fiEONcuYJ7ZYQldoLA.tVyHI..PSBI..PSBI..PSBI..PSBI..PSBI..PSBI..PSBI..PSBI..PSBI..PSBI..PSBI..PSBI..PSBI..PSBI..PSBI..PSBI..PSBI..PSBI..PSBI..PSi8PBK5OMkb2z0md71sYr183z0ut61sYr1oFb73wQM3XwcyzrFbzYrGR..fMDgD..l3lOe9WJ4MuyusWOgD..l3VrX16ty7m+Kt07a+uLe9769pd8DR..XxawsSxNyR9yVjYmry74O8Vyu82saDFVMgD..td4lIy1cVxe0hL6+7Vyu8+9slO+a0Z2Qby07c7cWy2dW0ue2Ddq9+dmLs5Wkhu25BWqwq6tsa.qQpAGmt61tArFMUqA2Zluys98e9G8aZdYyR9iSl8Ouy7m+fE41+q2HK96e9ye9i6ur0hGmju1Z51B.f0nuvW32M+O+pe0q75uXwh+6aLKey00HIb2rcNdVKAS9wag66Mk6jjuRR9fj7S2xsk0ouR55a+zz02lJTCNdnFb7XpVCt07IexG+mjjeuOkU6iSxuIYw2OKdiuyyewu9mbIzz1n7kHx3wiiuHaFKtaTCNlnFjOU6ry7u2Nyu8hUeZ9+1N67495Cudq64j...W88wKVr3WLKy9GewKl+Ok7KaN5ZBI..b8vhj7hjEe+Eexa7c9nOpr6D9vUdEDR..Xx6F+frH+fW7h+2evuMWKgD..l39sMbPguLk..nIgD..nIgD..nIgD..now9DWbJ8MLVwGjt90n+a5pAJ8moz2zcIpAGSTCNdLUqAA..................td3oI4fsciXM6fz0ulZlp8K0fiGS09kZPt15fjbZ59ctt0kUJh1OIm0udmjjcqVu8Rxw8q6QUK6j90+z9qewwqX4qK6mk8omlj6O3xOtpcdQ8qCqtcJu.wdUKqd8un965P8s+hp1esR+Z2p08rAskcSxCx42Vk9+uba+fWgkuITZy0Fq0fousrn5zdCt+Ga0fE6Wc+L7MNGi0f6kyucpbpXrVCV+5fKRWsTswbMHWhNIsew4jy+D9mlthkxS9Otec1u+xNNcEPkhkx5ra+eOse4Gkthw8R2S3Oas1aV1lte+888y4eA5cqN+E0uNMKCXTWneZV1uNMKeQqU0eWmJ8oCxK+Bz08q51xQY4Kvsa5d79jb9sUG1uN62e8Oq+5spkuIT1NMrNbrVCl7xACJFy0f6mkuY8v2.XrWCVbbVtMnb9wXM3SyxZixqYT1lMlqAYKn7Bz0pKhNXvkeupyWWPUTRlWdSrxKrTdR9gMV9lTca49oqMmr59U4ElpSSm7x8qx5cQ82MggAeJKqzuVjt9RxxsiGjkehfgF9Buk90pV95V4wuxmXrXLWCVtcaYLWCdRV8mleLWCVTdbq0alN1pAqG8fRaozuFy0frEzJjPcQTYieYX6eP+4KOApLLUOMcEXCK5R00u91IMN+5VofuTneZ082p5Wm0e5oUme+7x8qR+4h5uqS0eZ6yx4exac+p9SPT5+2OK6WKx4ae0uf9v6mVKec6zz8BMCu8Gy0fC2VU+33XsFr0i0C+zki0ZvhiyxZtx82XsFr73docUu6FFq0frkz5Id0EQ0qScwSonnT7cXN+SBpUWDM7IGapIDzdY4vnUNecfgj18qEo6EKJCE2w4782gW2U8jiMU+prOgKehrg8qxPeV+BDk04A4k2MLC2lT+XRqkuNcTU+X3s+TnFrLb6kGqGy0fCerqdXxGy0fEC+jvIi6Zvxtz39oqerpWuHY7TCxVxvh48xE+Dwx9fpTTTWrU+jiRwQY8tL2cCk8UV8P.dTt3I9ToeM7SuTRjObH6NLK2uhqp+toTuM6h5WkWnH4k6Wk17vgzsbcV0xWmVrhSSgZvZk1xXtFb3i0SkZvhGjyuqPF60f0OVWuKeFy0frkLLjPqhnxDl6jb98SU8Shq2GV0SrkgSXmSyxIrylXhsTl4sC2GgsNLlZ0uJs2xm7qL4NSd4IryQMV9lbhKVmpubeLresa5dBb4SvVdhdYnT2MK+zN0SrrR+srMcUKeS4S6McFS0f62ep9w2xDDaLWCVl49SsZvxavU+lhi8Zvxt7Y3n1L1qAYKX3vDMbeMlr7v0oL7SE0GlMkghJ47GhLmN35b7JV95R8g8S8PV15Sfzpesa0xWjtmXTtr59UcHjKp+ttTeHPVtOJeJrZ2uZcF9B20GVZ0WV4SNTFN3OskuITWGN1qAKu4V49nrubG60f0OVOkpAacDFL1qAG1lJyShwdMH.........................................LccVRVz3zQ8W182dMM..tJ39oKbPsCSxdaf6qS6useccX+sE..aPsBIrIbP5Fgh0ky5uMAtB6Fa6F.vZ2hz8FvGz++G2+2mltPEm1e9xnBra05rn+x2evs4gI4gUm+AUqa413jp6m6MXceZ+k8f9k8vrdFUB..VgVijvh9kWtriR2ahWdi86kkAH1Kcu49I8+eY8FNpAk.FYv0sLZ.mjtfF6N3xePVF5X2rb2fb+9aS..1PdUBIrp0cQ0xZcZ3sYYzE1McuA+IUKq00uDVn0jnb+F2G.WwX2M.jj7NIY1fSqxyRxWNIOIKGAhV2FOpZ8AFgDR.38R27CnrqC1Ku7bR3Y47ijv9I4amk6BgGltQLXupKOoKnvg4k2cC6GgG..1nJCoesgSbwUstk0K47Stv5I0XwIoatMjzMmFFNQDGN4GOYEKur9GUsN..LhcPVuSzvmFGBj..SFqyuLkLJB......SJ+ejOBUa3t3gCX.....jTQNQjqBAlf" ],
					"embed" : 1,
					"forceaspect" : 1,
					"id" : "obj-2",
					"maxclass" : "fpic",
					"numinlets" : 1,
					"numoutlets" : 1,
					"outlettype" : [ "jit_matrix" ],
					"patching_rect" : [ 11.283333525061607, 203.811948058644077, 352.566667407751083, 203.690147581061581 ],
					"pic" : "/Users/seththorn/Desktop/serial_bit.png"
				}

			}
, 			{
				"box" : 				{
					"bgcolor" : [ 0.286274509803922, 0.305882352941176, 0.298039215686275, 1.0 ],
					"bubble" : 1,
					"bubbleusescolors" : 1,
					"fontface" : 0,
					"fontname" : "Avenir Next",
					"id" : "obj-9",
					"maxclass" : "comment",
					"numinlets" : 1,
					"numoutlets" : 0,
					"patching_rect" : [ 599.188906401395798, 345.002095639705658, 57.800000250339508, 27.0 ],
					"text" : "Value",
					"textcolor" : [ 0.427450980392157, 0.843137254901961, 1.0, 1.0 ],
					"textjustification" : 1
				}

			}
, 			{
				"box" : 				{
					"bgcolor" : [ 0.286274509803922, 0.305882352941176, 0.298039215686275, 1.0 ],
					"bubble" : 1,
					"bubbleusescolors" : 1,
					"fontface" : 0,
					"fontname" : "Avenir Next",
					"id" : "obj-10",
					"maxclass" : "comment",
					"numinlets" : 1,
					"numoutlets" : 0,
					"patching_rect" : [ 513.100013822317123, 346.502095639705658, 56.222225487232208, 27.0 ],
					"text" : "Pixel",
					"textcolor" : [ 1.0, 0.709803921568627, 0.196078431372549, 1.0 ],
					"textjustification" : 1
				}

			}
, 			{
				"box" : 				{
					"id" : "obj-5",
					"maxclass" : "number",
					"numinlets" : 1,
					"numoutlets" : 2,
					"outlettype" : [ "", "bang" ],
					"parameter_enable" : 0,
					"patching_rect" : [ 572.988906651735306, 347.502095639705658, 41.0, 22.0 ]
				}

			}
, 			{
				"box" : 				{
					"id" : "obj-3",
					"maxclass" : "number",
					"numinlets" : 1,
					"numoutlets" : 2,
					"outlettype" : [ "", "bang" ],
					"parameter_enable" : 0,
					"patching_rect" : [ 481.788904756307602, 347.502095639705658, 41.0, 22.0 ]
				}

			}
, 			{
				"box" : 				{
					"bgcolor" : [ 0.286274509803922, 0.305882352941176, 0.298039215686275, 1.0 ],
					"bubble" : 1,
					"bubblepoint" : 0.3,
					"bubbleside" : 0,
					"bubbleusescolors" : 1,
					"fontface" : 0,
					"fontname" : "Avenir Next",
					"id" : "obj-1",
					"linecount" : 2,
					"maxclass" : "comment",
					"numinlets" : 1,
					"numoutlets" : 0,
					"patching_rect" : [ 389.000013500452042, 377.833341717720032, 55.216665064044037, 58.0 ],
					"text" : "Byte as integer",
					"textcolor" : [ 1.0, 1.0, 1.0, 1.0 ],
					"textjustification" : 1
				}

			}
, 			{
				"box" : 				{
					"bgcolor" : [ 0.286274509803922, 0.305882352941176, 0.298039215686275, 1.0 ],
					"bubble" : 1,
					"bubbleside" : 2,
					"bubbleusescolors" : 1,
					"fontface" : 0,
					"fontname" : "Avenir Next",
					"id" : "obj-147",
					"maxclass" : "comment",
					"numinlets" : 1,
					"numoutlets" : 0,
					"patching_rect" : [ 634.561129659414291, 175.833339214324951, 41.0, 42.0 ],
					"text" : "Value",
					"textcolor" : [ 0.427450980392157, 0.843137254901961, 1.0, 1.0 ],
					"textjustification" : 1
				}

			}
, 			{
				"box" : 				{
					"bgcolor" : [ 0.286274509803922, 0.305882352941176, 0.298039215686275, 1.0 ],
					"bubble" : 1,
					"bubbleside" : 2,
					"bubbleusescolors" : 1,
					"fontface" : 0,
					"fontname" : "Avenir Next",
					"id" : "obj-145",
					"maxclass" : "comment",
					"numinlets" : 1,
					"numoutlets" : 0,
					"patching_rect" : [ 482.322238087654114, 175.833339214324951, 44.39999920129776, 42.0 ],
					"text" : "Pixel",
					"textcolor" : [ 1.0, 0.709803921568627, 0.196078431372549, 1.0 ],
					"textjustification" : 1
				}

			}
, 			{
				"box" : 				{
					"id" : "obj-99",
					"maxclass" : "number",
					"numinlets" : 1,
					"numoutlets" : 2,
					"outlettype" : [ "", "bang" ],
					"parameter_enable" : 0,
					"patching_rect" : [ 398.722236067056656, 351.835427582263947, 50.0, 22.0 ]
				}

			}
, 			{
				"box" : 				{
					"id" : "obj-95",
					"maxclass" : "newobj",
					"numinlets" : 1,
					"numoutlets" : 3,
					"outlettype" : [ "jit_matrix", "int", "int" ],
					"patcher" : 					{
						"fileversion" : 1,
						"appversion" : 						{
							"major" : 8,
							"minor" : 3,
							"revision" : 1,
							"architecture" : "x64",
							"modernui" : 1
						}
,
						"classnamespace" : "box",
						"rect" : [ 59.0, 119.0, 640.0, 480.0 ],
						"bglocked" : 0,
						"openinpresentation" : 0,
						"default_fontsize" : 12.0,
						"default_fontface" : 0,
						"default_fontname" : "Arial",
						"gridonopen" : 1,
						"gridsize" : [ 15.0, 15.0 ],
						"gridsnaponopen" : 1,
						"objectsnaponopen" : 1,
						"statusbarvisible" : 2,
						"toolbarvisible" : 1,
						"lefttoolbarpinned" : 0,
						"toptoolbarpinned" : 0,
						"righttoolbarpinned" : 0,
						"bottomtoolbarpinned" : 0,
						"toolbars_unpinned_last_save" : 0,
						"tallnewobj" : 0,
						"boxanimatetime" : 200,
						"enablehscroll" : 1,
						"enablevscroll" : 1,
						"devicewidth" : 0.0,
						"description" : "",
						"digest" : "",
						"tags" : "",
						"style" : "",
						"subpatcher_template" : "",
						"assistshowspatchername" : 0,
						"boxes" : [ 							{
								"box" : 								{
									"comment" : "",
									"id" : "obj-2",
									"index" : 3,
									"maxclass" : "outlet",
									"numinlets" : 1,
									"numoutlets" : 0,
									"patching_rect" : [ 164.422222852706909, 138.0, 30.0, 30.0 ]
								}

							}
, 							{
								"box" : 								{
									"comment" : "",
									"id" : "obj-1",
									"index" : 2,
									"maxclass" : "outlet",
									"numinlets" : 1,
									"numoutlets" : 0,
									"patching_rect" : [ 102.422222852706909, 138.0, 30.0, 30.0 ]
								}

							}
, 							{
								"box" : 								{
									"id" : "obj-68",
									"maxclass" : "newobj",
									"numinlets" : 2,
									"numoutlets" : 1,
									"outlettype" : [ "int" ],
									"patching_rect" : [ 139.094445705413818, 75.0, 29.5, 22.0 ],
									"text" : "& 3"
								}

							}
, 							{
								"box" : 								{
									"id" : "obj-59",
									"maxclass" : "newobj",
									"numinlets" : 2,
									"numoutlets" : 1,
									"outlettype" : [ "int" ],
									"patching_rect" : [ 50.0, 75.0, 40.0, 22.0 ],
									"text" : "& 252"
								}

							}
, 							{
								"box" : 								{
									"id" : "obj-74",
									"maxclass" : "newobj",
									"numinlets" : 3,
									"numoutlets" : 1,
									"outlettype" : [ "" ],
									"patching_rect" : [ 50.0, 227.997899889945984, 107.844445705413818, 22.0 ],
									"text" : "pack i i i"
								}

							}
, 							{
								"box" : 								{
									"id" : "obj-71",
									"maxclass" : "newobj",
									"numinlets" : 2,
									"numoutlets" : 1,
									"outlettype" : [ "int" ],
									"patching_rect" : [ 138.844445705413818, 194.497899889945984, 30.0, 22.0 ],
									"text" : "* 85"
								}

							}
, 							{
								"box" : 								{
									"id" : "obj-70",
									"maxclass" : "newobj",
									"numinlets" : 2,
									"numoutlets" : 1,
									"outlettype" : [ "int" ],
									"patching_rect" : [ 50.0, 194.497899889945984, 29.5, 22.0 ],
									"text" : "% 8"
								}

							}
, 							{
								"box" : 								{
									"id" : "obj-69",
									"maxclass" : "newobj",
									"numinlets" : 2,
									"numoutlets" : 1,
									"outlettype" : [ "int" ],
									"patching_rect" : [ 94.422222852706909, 194.497899889945984, 29.5, 22.0 ],
									"text" : "/ 8"
								}

							}
, 							{
								"box" : 								{
									"id" : "obj-63",
									"maxclass" : "newobj",
									"numinlets" : 2,
									"numoutlets" : 1,
									"outlettype" : [ "int" ],
									"patching_rect" : [ 50.0, 100.0, 33.0, 22.0 ],
									"text" : ">> 2"
								}

							}
, 							{
								"box" : 								{
									"id" : "obj-22",
									"maxclass" : "newobj",
									"numinlets" : 1,
									"numoutlets" : 2,
									"outlettype" : [ "jit_matrix", "" ],
									"patching_rect" : [ 50.000000407800599, 288.331248223781586, 110.0, 22.0 ],
									"text" : "jit.matrix 4 char 8 8"
								}

							}
, 							{
								"box" : 								{
									"id" : "obj-32",
									"maxclass" : "message",
									"numinlets" : 2,
									"numoutlets" : 1,
									"outlettype" : [ "" ],
									"patching_rect" : [ 50.0, 258.331248446456925, 201.0, 22.0 ],
									"text" : "setcell $1 $2 val 255 $3 $3 $3, bang"
								}

							}
, 							{
								"box" : 								{
									"comment" : "",
									"id" : "obj-93",
									"index" : 1,
									"maxclass" : "inlet",
									"numinlets" : 0,
									"numoutlets" : 1,
									"outlettype" : [ "" ],
									"patching_rect" : [ 50.0, 24.000012088829067, 30.0, 30.0 ]
								}

							}
, 							{
								"box" : 								{
									"comment" : "",
									"id" : "obj-94",
									"index" : 1,
									"maxclass" : "outlet",
									"numinlets" : 1,
									"numoutlets" : 0,
									"patching_rect" : [ 49.999992932943371, 326.331219088829016, 30.0, 30.0 ]
								}

							}
 ],
						"lines" : [ 							{
								"patchline" : 								{
									"destination" : [ "obj-94", 0 ],
									"source" : [ "obj-22", 0 ]
								}

							}
, 							{
								"patchline" : 								{
									"destination" : [ "obj-22", 0 ],
									"source" : [ "obj-32", 0 ]
								}

							}
, 							{
								"patchline" : 								{
									"destination" : [ "obj-63", 0 ],
									"source" : [ "obj-59", 0 ]
								}

							}
, 							{
								"patchline" : 								{
									"destination" : [ "obj-1", 0 ],
									"order" : 0,
									"source" : [ "obj-63", 0 ]
								}

							}
, 							{
								"patchline" : 								{
									"destination" : [ "obj-69", 0 ],
									"order" : 1,
									"source" : [ "obj-63", 0 ]
								}

							}
, 							{
								"patchline" : 								{
									"destination" : [ "obj-70", 0 ],
									"order" : 2,
									"source" : [ "obj-63", 0 ]
								}

							}
, 							{
								"patchline" : 								{
									"destination" : [ "obj-2", 0 ],
									"order" : 0,
									"source" : [ "obj-68", 0 ]
								}

							}
, 							{
								"patchline" : 								{
									"destination" : [ "obj-71", 0 ],
									"order" : 1,
									"source" : [ "obj-68", 0 ]
								}

							}
, 							{
								"patchline" : 								{
									"destination" : [ "obj-74", 1 ],
									"source" : [ "obj-69", 0 ]
								}

							}
, 							{
								"patchline" : 								{
									"destination" : [ "obj-74", 0 ],
									"source" : [ "obj-70", 0 ]
								}

							}
, 							{
								"patchline" : 								{
									"destination" : [ "obj-74", 2 ],
									"source" : [ "obj-71", 0 ]
								}

							}
, 							{
								"patchline" : 								{
									"destination" : [ "obj-32", 0 ],
									"source" : [ "obj-74", 0 ]
								}

							}
, 							{
								"patchline" : 								{
									"destination" : [ "obj-59", 0 ],
									"order" : 1,
									"source" : [ "obj-93", 0 ]
								}

							}
, 							{
								"patchline" : 								{
									"destination" : [ "obj-68", 0 ],
									"order" : 0,
									"source" : [ "obj-93", 0 ]
								}

							}
 ]
					}
,
					"patching_rect" : [ 463.988906651735306, 313.135427832603455, 158.0, 22.0 ],
					"saved_object_attributes" : 					{
						"description" : "",
						"digest" : "",
						"globalpatchername" : "",
						"tags" : ""
					}
,
					"text" : "p decode_byte_and_display"
				}

			}
, 			{
				"box" : 				{
					"fontface" : 1,
					"fontname" : "Arial",
					"id" : "obj-92",
					"linecount" : 5,
					"maxclass" : "comment",
					"numinlets" : 1,
					"numoutlets" : 0,
					"patching_rect" : [ 34.566667228937149, 409.502095639705658, 306.0, 74.0 ],
					"text" : "Previously, we learned that MIDI bytes each contain two types of information: TYPE and VALUE. This is an important principle: we can pack different kinds of information into a single byte, or spread information across several bytes.",
					"textcolor" : [ 0.286274509803922, 0.305882352941176, 0.298039215686275, 1.0 ]
				}

			}
, 			{
				"box" : 				{
					"bubble" : 1,
					"bubblepoint" : 0.0,
					"bubbleusescolors" : 1,
					"fontface" : 0,
					"fontname" : "Avenir Next",
					"id" : "obj-60",
					"linecount" : 6,
					"maxclass" : "comment",
					"numinlets" : 1,
					"numoutlets" : 0,
					"patching_rect" : [ 650.388906270265579, 317.935427904129028, 157.0, 109.0 ],
					"text" : "The process of encoding/decoding bytes this way involves an operation called \"bit masking\" as well as bit-shifting."
				}

			}
, 			{
				"box" : 				{
					"id" : "obj-54",
					"maxclass" : "live.line",
					"numinlets" : 1,
					"numoutlets" : 0,
					"patching_rect" : [ 398.722236067056656, 209.833339214324951, 211.600003242492676, 7.000000059604645 ]
				}

			}
, 			{
				"box" : 				{
					"id" : "obj-53",
					"maxclass" : "live.line",
					"numinlets" : 1,
					"numoutlets" : 0,
					"patching_rect" : [ 623.988906651735306, 209.833339214324951, 61.544445097446442, 5.0 ]
				}

			}
, 			{
				"box" : 				{
					"id" : "obj-34",
					"maxclass" : "toggle",
					"numinlets" : 1,
					"numoutlets" : 1,
					"outlettype" : [ "int" ],
					"parameter_enable" : 0,
					"patching_rect" : [ 398.722236067056656, 219.833341777324677, 24.0, 24.0 ]
				}

			}
, 			{
				"box" : 				{
					"id" : "obj-35",
					"maxclass" : "toggle",
					"numinlets" : 1,
					"numoutlets" : 1,
					"outlettype" : [ "int" ],
					"parameter_enable" : 0,
					"patching_rect" : [ 436.455570071935654, 219.833341777324677, 24.0, 24.0 ]
				}

			}
, 			{
				"box" : 				{
					"id" : "obj-36",
					"maxclass" : "toggle",
					"numinlets" : 1,
					"numoutlets" : 1,
					"outlettype" : [ "int" ],
					"parameter_enable" : 0,
					"patching_rect" : [ 473.566681772470474, 219.833341777324677, 24.0, 24.0 ]
				}

			}
, 			{
				"box" : 				{
					"id" : "obj-37",
					"maxclass" : "toggle",
					"numinlets" : 1,
					"numoutlets" : 1,
					"outlettype" : [ "int" ],
					"parameter_enable" : 0,
					"patching_rect" : [ 511.788904756307602, 219.833341777324677, 24.0, 24.0 ]
				}

			}
, 			{
				"box" : 				{
					"id" : "obj-38",
					"maxclass" : "toggle",
					"numinlets" : 1,
					"numoutlets" : 1,
					"outlettype" : [ "int" ],
					"parameter_enable" : 0,
					"patching_rect" : [ 548.77779421210289, 219.833341777324677, 24.0, 24.0 ]
				}

			}
, 			{
				"box" : 				{
					"id" : "obj-39",
					"maxclass" : "toggle",
					"numinlets" : 1,
					"numoutlets" : 1,
					"outlettype" : [ "int" ],
					"parameter_enable" : 0,
					"patching_rect" : [ 586.322239309549332, 219.833341777324677, 24.0, 24.0 ]
				}

			}
, 			{
				"box" : 				{
					"id" : "obj-40",
					"maxclass" : "toggle",
					"numinlets" : 1,
					"numoutlets" : 1,
					"outlettype" : [ "int" ],
					"parameter_enable" : 0,
					"patching_rect" : [ 623.988906651735306, 219.833341777324677, 24.0, 24.0 ]
				}

			}
, 			{
				"box" : 				{
					"id" : "obj-41",
					"maxclass" : "toggle",
					"numinlets" : 1,
					"numoutlets" : 1,
					"outlettype" : [ "int" ],
					"parameter_enable" : 0,
					"patching_rect" : [ 661.533351749181747, 219.833341777324677, 24.0, 24.0 ]
				}

			}
, 			{
				"box" : 				{
					"id" : "obj-42",
					"maxclass" : "newobj",
					"numinlets" : 2,
					"numoutlets" : 1,
					"outlettype" : [ "int" ],
					"patching_rect" : [ 398.722236067056656, 251.335427582263947, 33.0, 22.0 ],
					"text" : "<< 7"
				}

			}
, 			{
				"box" : 				{
					"id" : "obj-43",
					"maxclass" : "newobj",
					"numinlets" : 2,
					"numoutlets" : 1,
					"outlettype" : [ "int" ],
					"patching_rect" : [ 511.788904756307602, 251.335427582263947, 33.0, 22.0 ],
					"text" : "<< 4"
				}

			}
, 			{
				"box" : 				{
					"id" : "obj-44",
					"maxclass" : "newobj",
					"numinlets" : 2,
					"numoutlets" : 1,
					"outlettype" : [ "int" ],
					"patching_rect" : [ 474.122237414121628, 251.335427582263947, 33.0, 22.0 ],
					"text" : "<< 5"
				}

			}
, 			{
				"box" : 				{
					"id" : "obj-45",
					"maxclass" : "newobj",
					"numinlets" : 2,
					"numoutlets" : 1,
					"outlettype" : [ "int" ],
					"patching_rect" : [ 436.455570071935654, 251.335427582263947, 33.0, 22.0 ],
					"text" : "<< 6"
				}

			}
, 			{
				"box" : 				{
					"id" : "obj-47",
					"maxclass" : "newobj",
					"numinlets" : 2,
					"numoutlets" : 2,
					"outlettype" : [ "", "" ],
					"patching_rect" : [ 398.722236067056656, 313.135427832603455, 49.0, 22.0 ],
					"text" : "list.sum"
				}

			}
, 			{
				"box" : 				{
					"id" : "obj-48",
					"maxclass" : "newobj",
					"numinlets" : 8,
					"numoutlets" : 1,
					"outlettype" : [ "" ],
					"patching_rect" : [ 398.722236067056656, 279.633341670036316, 281.811115682125092, 22.0 ],
					"text" : "pak i i i i i i i i"
				}

			}
, 			{
				"box" : 				{
					"id" : "obj-49",
					"maxclass" : "newobj",
					"numinlets" : 2,
					"numoutlets" : 1,
					"outlettype" : [ "int" ],
					"patching_rect" : [ 623.988906651735306, 251.335427582263947, 33.0, 22.0 ],
					"text" : "<< 1"
				}

			}
, 			{
				"box" : 				{
					"id" : "obj-50",
					"maxclass" : "newobj",
					"numinlets" : 2,
					"numoutlets" : 1,
					"outlettype" : [ "int" ],
					"patching_rect" : [ 586.322239309549332, 251.335427582263947, 33.0, 22.0 ],
					"text" : "<< 2"
				}

			}
, 			{
				"box" : 				{
					"id" : "obj-51",
					"maxclass" : "newobj",
					"numinlets" : 2,
					"numoutlets" : 1,
					"outlettype" : [ "int" ],
					"patching_rect" : [ 548.655571967363358, 251.335427582263947, 33.0, 22.0 ],
					"text" : "<< 3"
				}

			}
, 			{
				"box" : 				{
					"id" : "obj-31",
					"maxclass" : "live.line",
					"numinlets" : 1,
					"numoutlets" : 0,
					"patching_rect" : [ 373.000012993812561, 30.481183988290638, 5.0, 469.556471400148894 ]
				}

			}
, 			{
				"box" : 				{
					"bubble" : 1,
					"bubbleusescolors" : 1,
					"fontface" : 0,
					"fontname" : "Avenir Next",
					"id" : "obj-6",
					"linecount" : 4,
					"maxclass" : "comment",
					"numinlets" : 1,
					"numoutlets" : 0,
					"patching_rect" : [ 441.900016218423843, 18.535417735576573, 341.0, 76.0 ],
					"text" : "MIDI is fast enough for many applications, but each event still requires 3 bytes. If you want things to go faster, you have to increase your baud rate (which might not be possible) or reduce the number of bytes you're using."
				}

			}
, 			{
				"box" : 				{
					"id" : "obj-30",
					"maxclass" : "newobj",
					"numinlets" : 1,
					"numoutlets" : 1,
					"outlettype" : [ "int" ],
					"patching_rect" : [ 389.000013500452042, 46.202084720134678, 40.0, 22.0 ],
					"text" : "midiin"
				}

			}
, 			{
				"box" : 				{
					"fontface" : 1,
					"fontname" : "Arial",
					"id" : "obj-28",
					"linecount" : 4,
					"maxclass" : "comment",
					"numinlets" : 1,
					"numoutlets" : 0,
					"patching_rect" : [ 389.000013500452042, 102.166674673557338, 385.0, 60.0 ],
					"text" : "Let's say you're trying to make an animated display out of 64 lights and you want the refresh rate to be as fast as possible. You could use 6 bits to index the pixel whose brightness you want to change (0 - 63) and the remaining 2 bits to set the value (0 - 3).",
					"textcolor" : [ 0.286274509803922, 0.305882352941176, 0.298039215686275, 1.0 ]
				}

			}
, 			{
				"box" : 				{
					"fontface" : 1,
					"fontname" : "Arial",
					"id" : "obj-27",
					"linecount" : 4,
					"maxclass" : "comment",
					"numinlets" : 1,
					"numoutlets" : 0,
					"patching_rect" : [ 38.566667407751083, 124.666670978069305, 320.433345586061478, 60.0 ],
					"text" : "Serial communication takes time. Each byte contains 8 bits, and each bit is a pulse of electricity that lasts for a certain period of time, the number of bits per second.",
					"textcolor" : [ 0.286274509803922, 0.305882352941176, 0.298039215686275, 1.0 ]
				}

			}
, 			{
				"box" : 				{
					"id" : "obj-23",
					"maxclass" : "jit.pwindow",
					"numinlets" : 1,
					"numoutlets" : 2,
					"outlettype" : [ "jit_matrix", "" ],
					"patching_rect" : [ 463.988906651735306, 377.833341717720032, 150.0, 150.0 ],
					"sync" : 1
				}

			}
, 			{
				"box" : 				{
					"bubble" : 1,
					"bubbleside" : 2,
					"bubbleusescolors" : 1,
					"fontface" : 0,
					"fontname" : "Avenir Next",
					"id" : "obj-18",
					"linecount" : 2,
					"maxclass" : "comment",
					"numinlets" : 1,
					"numoutlets" : 0,
					"patching_rect" : [ 55.566667407751083, 189.471180298850129, 304.0, 58.0 ],
					"text" : "The transmission of a byte as 8 bits / electrical pulses. 9600 is bits/second is a typical rate"
				}

			}
, 			{
				"box" : 				{
					"fontface" : 1,
					"fontname" : "Arial",
					"id" : "obj-13",
					"linecount" : 2,
					"maxclass" : "comment",
					"numinlets" : 1,
					"numoutlets" : 0,
					"patching_rect" : [ 38.566667407751083, 71.83333545923233, 241.1333287358284, 33.0 ],
					"text" : "MIDI is a type of serial communication: the bits/bytes arrive one at a time.",
					"textcolor" : [ 0.286274509803922, 0.305882352941176, 0.298039215686275, 1.0 ]
				}

			}
, 			{
				"box" : 				{
					"fontface" : 0,
					"fontname" : "Impact",
					"fontsize" : 30.0,
					"id" : "obj-90",
					"maxclass" : "comment",
					"numinlets" : 1,
					"numoutlets" : 0,
					"patching_rect" : [ 38.566667407751083, 25.202084720134678, 299.79999715089798, 43.0 ],
					"text" : "SERIAL COMMUNICATION",
					"textcolor" : [ 0.286274509803922, 0.305882352941176, 0.298039215686275, 1.0 ]
				}

			}
, 			{
				"box" : 				{
					"id" : "obj-91",
					"maxclass" : "live.line",
					"numinlets" : 1,
					"numoutlets" : 0,
					"patching_rect" : [ 38.566667407751083, 113.166668891906738, 303.133330583572388, 5.0 ]
				}

			}
 ],
		"lines" : [ 			{
				"patchline" : 				{
					"destination" : [ "obj-42", 0 ],
					"source" : [ "obj-34", 0 ]
				}

			}
, 			{
				"patchline" : 				{
					"destination" : [ "obj-45", 0 ],
					"source" : [ "obj-35", 0 ]
				}

			}
, 			{
				"patchline" : 				{
					"destination" : [ "obj-44", 0 ],
					"source" : [ "obj-36", 0 ]
				}

			}
, 			{
				"patchline" : 				{
					"destination" : [ "obj-43", 0 ],
					"source" : [ "obj-37", 0 ]
				}

			}
, 			{
				"patchline" : 				{
					"destination" : [ "obj-51", 0 ],
					"source" : [ "obj-38", 0 ]
				}

			}
, 			{
				"patchline" : 				{
					"destination" : [ "obj-50", 0 ],
					"source" : [ "obj-39", 0 ]
				}

			}
, 			{
				"patchline" : 				{
					"destination" : [ "obj-49", 0 ],
					"source" : [ "obj-40", 0 ]
				}

			}
, 			{
				"patchline" : 				{
					"destination" : [ "obj-48", 7 ],
					"source" : [ "obj-41", 0 ]
				}

			}
, 			{
				"patchline" : 				{
					"destination" : [ "obj-48", 0 ],
					"source" : [ "obj-42", 0 ]
				}

			}
, 			{
				"patchline" : 				{
					"destination" : [ "obj-48", 3 ],
					"source" : [ "obj-43", 0 ]
				}

			}
, 			{
				"patchline" : 				{
					"destination" : [ "obj-48", 2 ],
					"source" : [ "obj-44", 0 ]
				}

			}
, 			{
				"patchline" : 				{
					"destination" : [ "obj-48", 1 ],
					"source" : [ "obj-45", 0 ]
				}

			}
, 			{
				"patchline" : 				{
					"destination" : [ "obj-95", 0 ],
					"midpoints" : [ 408.222236067056656, 343.666676461696625, 457.000013589859009, 343.666676461696625, 457.000013589859009, 305.666675329208374, 473.488906651735306, 305.666675329208374 ],
					"order" : 0,
					"source" : [ "obj-47", 0 ]
				}

			}
, 			{
				"patchline" : 				{
					"destination" : [ "obj-99", 0 ],
					"order" : 1,
					"source" : [ "obj-47", 0 ]
				}

			}
, 			{
				"patchline" : 				{
					"destination" : [ "obj-47", 0 ],
					"source" : [ "obj-48", 0 ]
				}

			}
, 			{
				"patchline" : 				{
					"destination" : [ "obj-48", 6 ],
					"source" : [ "obj-49", 0 ]
				}

			}
, 			{
				"patchline" : 				{
					"destination" : [ "obj-48", 5 ],
					"source" : [ "obj-50", 0 ]
				}

			}
, 			{
				"patchline" : 				{
					"destination" : [ "obj-48", 4 ],
					"source" : [ "obj-51", 0 ]
				}

			}
, 			{
				"patchline" : 				{
					"destination" : [ "obj-23", 0 ],
					"source" : [ "obj-95", 0 ]
				}

			}
, 			{
				"patchline" : 				{
					"destination" : [ "obj-3", 0 ],
					"source" : [ "obj-95", 1 ]
				}

			}
, 			{
				"patchline" : 				{
					"destination" : [ "obj-5", 0 ],
					"source" : [ "obj-95", 2 ]
				}

			}
 ],
		"dependency_cache" : [  ],
		"autosave" : 0
	}

}
